PathFileType	3	(X/Y/Z)	D:\Vicon Database\Healthy Subjects\S0040\Jan. 30, 2020\Force Plate Walk 10.trc
DataRate	CameraRate	NumFrames	NumMarkers	Units	OrigDataRate	OrigDataStartFrame	OrigNumFrames
100.0	100.0	7	53	mm	100.0	198	338	
Frame#	Time	right_foot_cluster2			right_foot_cluster3			sternum_cluster1			sternum_cluster2			sternum_cluster3			left_asis			right_asis			left_psis			right_psis			sacrum_cluster1			sacrum_cluster2			sacrum_cluster3			left_lat_femoral_epicondyle			left_anterior_thigh15			left_anterior_thigh25			left_anterior_thigh50			left_lateral_thigh25			left_lateral_thigh50			left_thigh_cluster1			left_thigh_cluster2			left_thigh_cluster3			left_fibular_head			left_tibial_tuberosity			left_anterior_shank30			left_lateral_malleolus			left_shank_cluster1			left_shank_cluster2			left_shank_cluster3			left_heel			left_metatarsal2			left_foot_cluster1			left_foot_cluster2			left_foot_cluster3			right_lat_femoral_epicondyle			right_anterior_thigh15			right_anterior_thigh25			right_anterior_thigh50			right_lateral_thigh25			right_lateral_thigh50			right_thigh_cluster1			right_thigh_cluster2			right_thigh_cluster3			right_fibular_head			right_tibial_tuberosity			right_lateral_distal_shank			right_anterior_shank30			right_lateral_malleolus			right_shank_cluster1			right_shank_cluster2			right_shank_cluster3			right_heel			right_metatarsal2			right_foot_cluster1			
		X1	Y1	Z1	X2	Y2	Z2	X3	Y3	Z3	X4	Y4	Z4	X5	Y5	Z5	X6	Y6	Z6	X7	Y7	Z7	X8	Y8	Z8	X9	Y9	Z9	X10	Y10	Z10	X11	Y11	Z11	X12	Y12	Z12	X13	Y13	Z13	X14	Y14	Z14	X15	Y15	Z15	X16	Y16	Z16	X17	Y17	Z17	X18	Y18	Z18	X19	Y19	Z19	X20	Y20	Z20	X21	Y21	Z21	X22	Y22	Z22	X23	Y23	Z23	X24	Y24	Z24	X25	Y25	Z25	X26	Y26	Z26	X27	Y27	Z27	X28	Y28	Z28	X29	Y29	Z29	X30	Y30	Z30	X31	Y31	Z31	X32	Y32	Z32	X33	Y33	Z33	X34	Y34	Z34	X35	Y35	Z35	X36	Y36	Z36	X37	Y37	Z37	X38	Y38	Z38	X39	Y39	Z39	X40	Y40	Z40	X41	Y41	Z41	X42	Y42	Z42	X43	Y43	Z43	X44	Y44	Z44	X45	Y45	Z45	X46	Y46	Z46	X47	Y47	Z47	X48	Y48	Z48	X49	Y49	Z49	X50	Y50	Z50	X51	Y51	Z51	X52	Y52	Z52	X53	Y53	Z53	
198	1.97	3718.1394	106.47004	-196.88504	3719.0017	109.75375	-234.40181	3644.3806	1453.2738	-161.90553	3635.2537	1424.7644	-153.29996	3636.5933	1426.926	-191.35147	3693.8242	1073.2596	-37.249222	3688.0159	1083.3053	-284.29092																3647.7202	558.51068	-10.389602	3564.23	647.62152	-53.896927	3576.2314	737.67743	-43.727684	3623.4207	869.48151	-34.103016	3686.3547	699.81427	8.2777538	3720.4275	844.37811	30.389662	3710.8721	799.17078	37.284428	3705.8826	770.01886	32.979149	3673.4724	787.1745	39.61116	3663.3025	492.3602	-0.35660839	3614.3784	455.84857	-52.067547	3792.1702	271.97168	-62.354256	3904.7517	214.87125	-34.883064	3649.6443	407.53952	-79.191681	3664.5852	384.32184	-69.984909	3673.0706	390.95459	-106.87309	3982.4343	229.1496	-80.989906	3809.0396	98.039734	-54.63306	3825.3894	173.13028	-54.872139	3819.4631	144.99454	-42.681522	3809.2178	144.11829	-79.304375	3766.5332	538.20752	-285.23688	3677.2305	623.70374	-232.9639	3659.4773	702.2113	-236.1109	3652.6841	831.60181	-249.91916	3758.2371	696.8302	-314.672	3752.5571	844.22437	-345.13556	3765.2048	790.36237	-349.93018	3752.2273	765.44104	-345.92429	3791.6963	765.81494	-341.26608	3782.7253	470.40027	-287.13419	3726.8838	458.47726	-242.84003	3820.0623	203.3718	-262.44052	3771.8088	214.33214	-218.59619	3830.7061	100.62797	-243.64377	3742.76	396.28336	-185.63107	3750.8743	369.17606	-177.40245	3729.1296	363.89145	-206.51248	3904.1316	66.259712	-204.52631	3685.4282	74.329895	-208.75301	3742.6475	119.48698	-205.71742
199	1.98	3718.0598	106.32597	-196.57216	3718.7378	109.62109	-234.45488	3633.6274	1453.6276	-161.36864	3625.1116	1424.7537	-153.69095	3626.5396	1426.7751	-191.45044	3684.5754	1073.7822	-37.943428	3678.3162	1082.8676	-285.55823																3629.8777	561.48444	-11.668407	3548.5017	652.86548	-55.552814	3562.5742	742.36371	-45.431225	3612.3809	872.8681	-35.427048	3670.9482	702.42676	8.2603626	3708.7847	846.38068	30.912676	3697.3208	801.32556	37.408688	3692.804	772.88885	35.341564	3659.3694	789.58423	39.415039	3643.8118	494.76804	-1.7110701	3592.75	460.12875	-53.07291	3764.0015	268.418	-63.369198	3873.8623	207.35661	-36.090336	3626.5664	409.81891	-80.230919	3640.3335	386.11877	-70.812462	3648.9575	392.75378	-108.05894	3952.2727	217.14037	-82.165947	3772.3459	95.25499	-56.533909	3792.6145	169.33475	-56.171139	3785.1597	141.38406	-44.253269	3774.8713	142.1571	-81.202454	3764.0496	538.13556	-285.76672	3673.2104	622.48889	-233.29277	3654.4497	700.46692	-236.09447	3645.5349	830.05505	-250.33525	3753.3315	696.85382	-314.91772	3745.1807	843.53888	-345.16782	3759.1887	790.54291	-350.33383	3745.9683	765.12891	-346.13907	3784.9255	764.95734	-340.66913	3780.2844	470.09241	-286.67645	3725.0554	458.08527	-243.17802	3819.4072	203.40927	-262.49023	3770.9871	214.14984	-218.651	3831.144	100.59391	-243.74205	3740.8589	395.67657	-185.63258	3748.97	368.93414	-177.75188	3727.4758	363.5235	-206.67528	3904.0122	66.260155	-204.44376	3685.0796	73.990082	-208.14485	3742.5112	119.2618	-205.49794
200	1.99	3717.877	106.07188	-196.4014	3718.7502	109.4979	-234.19821	3624.6506	1453.2942	-162.82265	3615.0864	1424.5853	-153.95775	3616.2539	1426.6061	-191.85933	3675.1353	1074.3597	-38.601833	3669.1133	1081.9122	-286.11551																3612.5623	564.22736	-12.968338	3532.8723	657.91486	-57.17683	3549.1711	746.8924	-47.003719	3601.4219	875.93951	-36.558712	3655.7729	704.84851	8.6130657	3696.689	848.43683	31.29974	3683.281	803.53455	38.347225	3678.5271	773.54089	35.129898	3645.7351	792.43707	39.350967	3624.6304	496.82565	-3.2258291	3571.0972	463.73346	-53.20488	3735.6401	265.20584	-64.404785	3841.9922	198.64381	-37.508476	3603.6733	412.24908	-81.077339	3616.2278	388.18893	-71.430702	3625.0359	393.83032	-108.88595	3921.2004	205.09273	-83.282867	3734.8811	92.801979	-57.649364	3759.6008	165.40744	-57.517605	3750.22	138.28809	-45.591755	3739.8411	139.02074	-82.67083	3760.8752	537.26624	-285.74713	3669.4839	621.08752	-233.45103	3649.1331	698.74689	-236.26431	3638.3955	828.27563	-250.23961	3748.0327	696.31738	-315.12256	3737.7974	842.83734	-345.37317	3752.9238	790.07458	-350.49634	3739.7922	764.534	-346.05139	3779.2778	765.79047	-341.49905	3778.2905	470.08472	-287.26727	3723.0481	457.49609	-243.22466	3818.9521	203.54407	-262.14853	3770.1741	213.81444	-218.43092	3831.0513	100.80054	-243.34746	3739.146	395.64404	-185.4213	3747.2439	368.60629	-177.69742	3725.7192	363.12238	-206.60495	3903.9055	66.349007	-204.34912	3684.95	73.718307	-208.03673	3742.3481	119.50114	-204.89005
201	2	3717.7319	105.73811	-196.34038	3718.6599	109.42529	-234.07027	3614.7173	1452.4717	-162.80952	3604.9124	1424.2416	-154.38007	3605.8357	1426.6283	-192.39984	3665.6292	1074.7107	-39.383137	3659.0784	1081.5728	-287.14426																3595.8284	566.97205	-14.171453	3518.4688	662.15295	-58.40498	3536.0361	751.01685	-48.344036	3590.5146	878.70032	-37.550217	3640.675	707.0708	9.0674133	3684.6536	850.07501	31.73913	3670.3472	805.16125	38.637852	3664.7432	775.67609	35.968414	3632.2922	795.42291	39.914494	3605.8831	498.4949	-4.2791185	3550.9717	467.2771	-54.081768	3706.1792	262.01483	-65.394356	3809.585	190.59268	-38.6283	3580.3967	414.66516	-82.008629	3592.2375	389.93729	-71.925888	3601.1975	395.32462	-109.67248	3888.8198	192.30528	-84.833817	3696.9539	90.614922	-59.064213	3725.5278	161.29868	-58.951195	3714.6045	134.61267	-46.817635	3704.3271	136.20833	-83.758057	3757.7146	537.18738	-285.78482	3664.9558	619.46777	-233.65579	3643.7224	696.85712	-236.23097	3631.1873	826.33917	-250.46164	3743.033	696.56036	-315.39087	3730.6582	842.52356	-345.54178	3745.9485	788.98828	-349.87866	3733.4849	763.8996	-346.20486	3773.084	765.80127	-341.71271	3775.3794	469.93365	-286.4613	3720.5164	456.9931	-242.9767	3817.7004	203.4169	-261.77805	3769.283	213.49063	-218.02673	3830.8328	100.97501	-242.9425	3737.4058	395.47302	-185.08234	3745.4148	368.17456	-177.4299	3724.0796	362.5524	-206.13539	3903.8677	66.669388	-204.22394	3684.8184	73.462204	-207.83026	3742.3176	119.41911	-204.59471
202	2.01	3717.614	105.7465	-195.97514	3718.4739	109.32216	-233.80511	3604.4846	1452.3311	-163.32513	3594.6575	1423.8143	-154.58298	3595.4131	1426.0165	-192.24118	3656.0901	1074.5214	-40.098686	3650.1194	1079.5819	-286.88104																3579.3948	569.46991	-15.230371	3503.9646	666.32355	-59.730026	3523.0811	754.57672	-49.700615	3579.5164	881.02728	-38.518887	3625.5986	709.16315	9.2827654	3672.3481	851.40173	32.114491	3657.0063	806.74756	39.104061	3650.9585	777.59247	36.468277	3618.9866	797.90234	40.087467	3587.665	499.82098	-5.4264154	3531.4236	471.00647	-55.18367	3676.4082	258.52795	-66.453278	3776.4197	182.25706	-39.934925	3558.0769	417.17484	-82.823853	3568.8843	391.99341	-73.116341	3577.9709	396.47641	-110.53674	3855.6074	179.62904	-86.123947	3658.5969	88.250221	-59.924435	3690.9211	157.25273	-60.025799	3678.6748	131.73976	-47.734268	3668.2874	133.30272	-84.339203	3754.6428	536.82703	-285.30536	3661.1133	617.82642	-233.63596	3637.9819	695.42474	-235.94051	3623.9507	824.48053	-250.2412	3736.7234	694.71667	-314.8877	3723.1455	841.77692	-345.78351	3739.219	788.49359	-350.16443	3726.7703	763.01978	-346.40137	3766.5601	765.53125	-341.87213	3772.842	469.96884	-286.82626	3717.9146	456.30038	-242.53758	3815.9785	203.11858	-261.6918	3768.2854	213.35526	-217.49756	3830.5774	101.20511	-242.55711	3735.6289	395.03598	-184.71494	3743.0378	367.69473	-176.63765	3722.1895	362.17432	-205.64142	3903.7979	66.973778	-204.09062	3684.6643	73.175095	-207.83981	3742.0833	119.07775	-204.2742
203	2.02	3717.313	105.59121	-195.65337	3717.9456	109.37173	-233.244	3594.1541	1451.5011	-163.28073	3584.3567	1423.0787	-154.85497	3584.929	1425.4087	-192.82118	3646.4121	1074.2944	-40.770596	3640.4312	1078.7556	-287.95023																3563.3889	571.38696	-15.918536	3489.9302	669.91895	-60.807388	3510.1538	757.99567	-50.944077	3568.3967	883.41992	-39.588722	3610.8232	711.27893	9.5344715	3660.0466	852.76062	32.558289	3643.7478	808.3064	39.394043	3637.2815	779.33795	36.854969	3605.2788	799.48541	39.620564	3569.8467	501.05493	-6.3995409	3512.7063	474.01434	-56.290977	3646.4729	255.16676	-67.42202	3742.5854	173.78917	-41.225838	3536.343	419.65366	-83.653023	3545.8931	393.50653	-74.119019	3554.9785	398.09424	-111.37276	3821.3865	166.73764	-87.495071	3619.5725	86.444176	-60.998402	3655.8081	153.62215	-60.88623	3642.1631	128.83929	-48.669605	3631.968	131.15445	-85.669655	3750.8369	536.27435	-285.13742	3658.2424	616.28119	-233.51192	3631.5237	693.862	-235.86205	3616.2444	822.56238	-250.30017	3731.3086	694.77362	-315.31659	3715.4548	840.80768	-346.23123	3732.5652	788.03802	-350.44394	3720.1023	762.30737	-346.45914	3759.8005	765.12158	-342.02179	3769.5576	469.42886	-286.52258	3715.1462	455.54517	-242.13437	3814.5925	203.11423	-261.49698	3767.2275	213.17445	-216.98308	3830.0713	101.06315	-242.18419	3733.1421	394.24438	-184.04456	3741.9253	367.83926	-176.20688	3720.1379	361.70673	-205.30334	3903.6919	67.131989	-204.006	3684.501	73.058861	-207.7047	3741.8042	118.71672	-203.93115
204	2.03	3717.1594	105.38586	-195.35934	3718.1353	109.21505	-232.92439	3583.5972	1451.09	-163.93898	3573.9124	1422.1537	-155.07301	3574.3889	1424.6833	-193.02734	3636.5603	1074.0338	-41.43309	3630.8281	1077.4331	-288.75171																3547.7556	572.59399	-15.942167	3476.2173	673.12805	-61.975574	3497.4219	760.66431	-52.088242	3557.1943	885.38019	-40.529945	3596.4536	713.13855	9.3443661	3647.7871	853.75092	32.788105	3630.6155	809.50665	39.667816	3623.7551	780.2171	36.984959	3592.0962	801.23431	39.381462	3552.2261	501.48624	-7.3073368	3494.3257	477.52859	-57.34021	3616.377	251.74973	-68.555573	3708.0532	165.38609	-42.312988	3515.0276	422.04239	-84.347153	3523.062	395.15137	-75.160904	3532.4167	399.67068	-112.39447	3786.1821	153.80003	-88.811623	3580.2793	85.336441	-61.665932	3620.2913	150.12811	-61.760918	3604.4143	127.20248	-49.173897	3595.1287	129.16573	-86.631104	3747.0061	535.91046	-284.88327	3653.6846	614.61804	-232.89406	3625.8047	692.35272	-235.44598	3608.6406	820.80621	-250.10449	3725.3418	694.1687	-315.55911	3707.4487	839.56976	-345.78189	3722.7639	788.11322	-350.45331	3713.7219	760.89087	-345.51645	3752.7932	764.51831	-342.19537	3766.3838	469.13803	-286.40088	3711.8582	455.20847	-241.42897	3813.3921	203.12578	-261.37726	3766.5093	212.98726	-216.35675	3829.3416	101.22901	-241.57613	3731.0681	394.16595	-183.50679	3740.0869	367.61017	-175.55888	3717.4111	361.49268	-204.38223	3903.5735	67.11512	-203.95271	3684.2976	72.737091	-207.59802	3741.6211	118.67408	-203.62198
